<svg xmlns="http://www.w3.org/2000/svg" xmlns:svg="http://www.w3.org/2000/svg" id="svg3390" width="60" height="60" version="1.1" viewBox="0 0 60 60" xml:space="preserve"><metadata id="metadata3396"/><defs id="defs3394"><clipPath id="clipPath3404" clipPathUnits="userSpaceOnUse"><path id="path3406" d="M 0,48 48,48 48,0 0,0 0,48 Z"/></clipPath><clipPath id="clipPath3416" clipPathUnits="userSpaceOnUse"><path id="path3418" d="M 0,48 48,48 48,0 0,0 0,48 Z"/></clipPath><clipPath id="clipPath3426" clipPathUnits="userSpaceOnUse"><path id="path3428" d="M 0,48 48,48 48,0 0,0 0,48 Z"/></clipPath><clipPath id="clipPath3434" clipPathUnits="userSpaceOnUse"><path id="path3436" d="M 0,48 48,48 48,0 0,0 0,48 Z"/></clipPath><clipPath id="clipPath3442" clipPathUnits="userSpaceOnUse"><path id="path3444" d="m -2.13623e-4,48.0002 48.000013623,0 0,-48.000047412 -48.000013623,0 0,48.000047412 z"/></clipPath><clipPath id="clipPath3446" clipPathUnits="userSpaceOnUse"><path id="path3448" d="m -2.13623e-4,47.9998 48.000013623,0 0,-47.999952588 -48.000013623,0 0,47.999952588 z"/></clipPath><clipPath id="clipPath3450" clipPathUnits="userSpaceOnUse"><path id="path3452" d="M 48,48 0,48 0,0 48,0 48,48 Z"/></clipPath><clipPath id="clipPath3658" clipPathUnits="userSpaceOnUse"><path id="path3660" d="M 0,48 48,48 48,0 0,0 0,48 Z"/></clipPath><clipPath id="clipPath3668" clipPathUnits="userSpaceOnUse"><path id="path3670" d="m -2.28882e-4,48.0001 48.000028882,0 0,-47.99997793 -48.000028882,0 0,47.99997793 z"/></clipPath><clipPath id="clipPath3676" clipPathUnits="userSpaceOnUse"><path id="path3678" d="m -2.28882e-4,48.0001 48.000028882,0 0,-47.99997793 -48.000028882,0 0,47.99997793 z"/></clipPath><clipPath id="clipPath3680" clipPathUnits="userSpaceOnUse"><path id="path3682" d="M 0,0 48,0 48,48 0,48 0,0 Z"/></clipPath></defs><g id="g3398" transform="matrix(1.25,0,0,-1.25,0,60)"><g id="g3430"><g id="g3432" clip-path="url(#clipPath3434)"><g id="g3438"><g id="g3454"><g id="g3456" clip-path="url(#clipPath3442)" style="opacity:.14999402"><g id="g3458" transform="matrix(1,0,0,-1,0,48)"><g id="g3460"><g id="g3462" clip-path="url(#clipPath3446)"><g id="g3464"><g id="g3466" clip-path="url(#clipPath3450)"><g id="g3468" transform="translate(1.9998,47.9998)"><path style="fill:none;stroke:#000;stroke-width:.25;stroke-linecap:butt;stroke-linejoin:miter;stroke-miterlimit:10;stroke-dasharray:none;stroke-opacity:1" id="path3470" d="M 0,0 0,-48"/></g><g id="g3472" transform="translate(3.9998,47.9998)"><path style="fill:none;stroke:#000;stroke-width:.25;stroke-linecap:butt;stroke-linejoin:miter;stroke-miterlimit:10;stroke-dasharray:none;stroke-opacity:1" id="path3474" d="M 0,0 0,-48"/></g><g id="g3476" transform="translate(5.9998,47.9998)"><path style="fill:none;stroke:#000;stroke-width:.25;stroke-linecap:butt;stroke-linejoin:miter;stroke-miterlimit:10;stroke-dasharray:none;stroke-opacity:1" id="path3478" d="M 0,0 0,-48"/></g><g id="g3480" transform="translate(7.9998,47.9998)"><path style="fill:none;stroke:#000;stroke-width:.25;stroke-linecap:butt;stroke-linejoin:miter;stroke-miterlimit:10;stroke-dasharray:none;stroke-opacity:1" id="path3482" d="M 0,0 0,-48"/></g><g id="g3484" transform="translate(9.9998,47.9998)"><path style="fill:none;stroke:#000;stroke-width:.25;stroke-linecap:butt;stroke-linejoin:miter;stroke-miterlimit:10;stroke-dasharray:none;stroke-opacity:1" id="path3486" d="M 0,0 0,-48"/></g><g id="g3488" transform="translate(11.9998,47.9998)"><path style="fill:none;stroke:#000;stroke-width:.25;stroke-linecap:butt;stroke-linejoin:miter;stroke-miterlimit:10;stroke-dasharray:none;stroke-opacity:1" id="path3490" d="M 0,0 0,-48"/></g><g id="g3492" transform="translate(13.9998,47.9998)"><path style="fill:none;stroke:#000;stroke-width:.25;stroke-linecap:butt;stroke-linejoin:miter;stroke-miterlimit:10;stroke-dasharray:none;stroke-opacity:1" id="path3494" d="M 0,0 0,-48"/></g><g id="g3496" transform="translate(15.9998,47.9998)"><path style="fill:none;stroke:#000;stroke-width:.25;stroke-linecap:butt;stroke-linejoin:miter;stroke-miterlimit:10;stroke-dasharray:none;stroke-opacity:1" id="path3498" d="M 0,0 0,-48"/></g><g id="g3500" transform="translate(17.9998,47.9998)"><path style="fill:none;stroke:#000;stroke-width:.25;stroke-linecap:butt;stroke-linejoin:miter;stroke-miterlimit:10;stroke-dasharray:none;stroke-opacity:1" id="path3502" d="M 0,0 0,-48"/></g><g id="g3504" transform="translate(19.9998,47.9998)"><path style="fill:none;stroke:#000;stroke-width:.25;stroke-linecap:butt;stroke-linejoin:miter;stroke-miterlimit:10;stroke-dasharray:none;stroke-opacity:1" id="path3506" d="M 0,0 0,-48"/></g><g id="g3508" transform="translate(21.9998,47.9998)"><path style="fill:none;stroke:#000;stroke-width:.25;stroke-linecap:butt;stroke-linejoin:miter;stroke-miterlimit:10;stroke-dasharray:none;stroke-opacity:1" id="path3510" d="M 0,0 0,-48"/></g><g id="g3512" transform="translate(23.9998,47.9998)"><path style="fill:none;stroke:#000;stroke-width:.25;stroke-linecap:butt;stroke-linejoin:miter;stroke-miterlimit:10;stroke-dasharray:none;stroke-opacity:1" id="path3514" d="M 0,0 0,-48"/></g><g id="g3516" transform="translate(25.9998,47.9998)"><path style="fill:none;stroke:#000;stroke-width:.25;stroke-linecap:butt;stroke-linejoin:miter;stroke-miterlimit:10;stroke-dasharray:none;stroke-opacity:1" id="path3518" d="M 0,0 0,-48"/></g><g id="g3520" transform="translate(27.9998,47.9998)"><path style="fill:none;stroke:#000;stroke-width:.25;stroke-linecap:butt;stroke-linejoin:miter;stroke-miterlimit:10;stroke-dasharray:none;stroke-opacity:1" id="path3522" d="M 0,0 0,-48"/></g><g id="g3524" transform="translate(29.9998,47.9998)"><path style="fill:none;stroke:#000;stroke-width:.25;stroke-linecap:butt;stroke-linejoin:miter;stroke-miterlimit:10;stroke-dasharray:none;stroke-opacity:1" id="path3526" d="M 0,0 0,-48"/></g><g id="g3528" transform="translate(31.9998,47.9998)"><path style="fill:none;stroke:#000;stroke-width:.25;stroke-linecap:butt;stroke-linejoin:miter;stroke-miterlimit:10;stroke-dasharray:none;stroke-opacity:1" id="path3530" d="M 0,0 0,-48"/></g><g id="g3532" transform="translate(33.9998,47.9998)"><path style="fill:none;stroke:#000;stroke-width:.25;stroke-linecap:butt;stroke-linejoin:miter;stroke-miterlimit:10;stroke-dasharray:none;stroke-opacity:1" id="path3534" d="M 0,0 0,-48"/></g><g id="g3536" transform="translate(35.9998,47.9998)"><path style="fill:none;stroke:#000;stroke-width:.25;stroke-linecap:butt;stroke-linejoin:miter;stroke-miterlimit:10;stroke-dasharray:none;stroke-opacity:1" id="path3538" d="M 0,0 0,-48"/></g><g id="g3540" transform="translate(37.9998,47.9998)"><path style="fill:none;stroke:#000;stroke-width:.25;stroke-linecap:butt;stroke-linejoin:miter;stroke-miterlimit:10;stroke-dasharray:none;stroke-opacity:1" id="path3542" d="M 0,0 0,-48"/></g><g id="g3544" transform="translate(39.9998,47.9998)"><path style="fill:none;stroke:#000;stroke-width:.25;stroke-linecap:butt;stroke-linejoin:miter;stroke-miterlimit:10;stroke-dasharray:none;stroke-opacity:1" id="path3546" d="M 0,0 0,-48"/></g><g id="g3548" transform="translate(41.9998,47.9998)"><path style="fill:none;stroke:#000;stroke-width:.25;stroke-linecap:butt;stroke-linejoin:miter;stroke-miterlimit:10;stroke-dasharray:none;stroke-opacity:1" id="path3550" d="M 0,0 0,-48"/></g><g id="g3552" transform="translate(43.9998,47.9998)"><path style="fill:none;stroke:#000;stroke-width:.25;stroke-linecap:butt;stroke-linejoin:miter;stroke-miterlimit:10;stroke-dasharray:none;stroke-opacity:1" id="path3554" d="M 0,0 0,-48"/></g><g id="g3556" transform="translate(45.9998,47.9998)"><path style="fill:none;stroke:#000;stroke-width:.25;stroke-linecap:butt;stroke-linejoin:miter;stroke-miterlimit:10;stroke-dasharray:none;stroke-opacity:1" id="path3558" d="M 0,0 0,-48"/></g><g id="g3560" transform="translate(-2e-4,1.9998)"><path style="fill:none;stroke:#000;stroke-width:.25;stroke-linecap:butt;stroke-linejoin:miter;stroke-miterlimit:10;stroke-dasharray:none;stroke-opacity:1" id="path3562" d="M 0,0 48,0"/></g><g id="g3564" transform="translate(-2e-4,3.9998)"><path style="fill:none;stroke:#000;stroke-width:.25;stroke-linecap:butt;stroke-linejoin:miter;stroke-miterlimit:10;stroke-dasharray:none;stroke-opacity:1" id="path3566" d="M 0,0 48,0"/></g><g id="g3568" transform="translate(-2e-4,5.9998)"><path style="fill:none;stroke:#000;stroke-width:.25;stroke-linecap:butt;stroke-linejoin:miter;stroke-miterlimit:10;stroke-dasharray:none;stroke-opacity:1" id="path3570" d="M 0,0 48,0"/></g><g id="g3572" transform="translate(-2e-4,7.9998)"><path style="fill:none;stroke:#000;stroke-width:.25;stroke-linecap:butt;stroke-linejoin:miter;stroke-miterlimit:10;stroke-dasharray:none;stroke-opacity:1" id="path3574" d="M 0,0 48,0"/></g><g id="g3576" transform="translate(-2e-4,9.9998)"><path style="fill:none;stroke:#000;stroke-width:.25;stroke-linecap:butt;stroke-linejoin:miter;stroke-miterlimit:10;stroke-dasharray:none;stroke-opacity:1" id="path3578" d="M 0,0 48,0"/></g><g id="g3580" transform="translate(-2e-4,11.9998)"><path style="fill:none;stroke:#000;stroke-width:.25;stroke-linecap:butt;stroke-linejoin:miter;stroke-miterlimit:10;stroke-dasharray:none;stroke-opacity:1" id="path3582" d="M 0,0 48,0"/></g><g id="g3584" transform="translate(-2e-4,13.9998)"><path style="fill:none;stroke:#000;stroke-width:.25;stroke-linecap:butt;stroke-linejoin:miter;stroke-miterlimit:10;stroke-dasharray:none;stroke-opacity:1" id="path3586" d="M 0,0 48,0"/></g><g id="g3588" transform="translate(-2e-4,15.9998)"><path style="fill:none;stroke:#000;stroke-width:.25;stroke-linecap:butt;stroke-linejoin:miter;stroke-miterlimit:10;stroke-dasharray:none;stroke-opacity:1" id="path3590" d="M 0,0 48,0"/></g><g id="g3592" transform="translate(-2e-4,17.9998)"><path style="fill:none;stroke:#000;stroke-width:.25;stroke-linecap:butt;stroke-linejoin:miter;stroke-miterlimit:10;stroke-dasharray:none;stroke-opacity:1" id="path3594" d="M 0,0 48,0"/></g><g id="g3596" transform="translate(-2e-4,19.9998)"><path style="fill:none;stroke:#000;stroke-width:.25;stroke-linecap:butt;stroke-linejoin:miter;stroke-miterlimit:10;stroke-dasharray:none;stroke-opacity:1" id="path3598" d="M 0,0 48,0"/></g><g id="g3600" transform="translate(-2e-4,21.9998)"><path style="fill:none;stroke:#000;stroke-width:.25;stroke-linecap:butt;stroke-linejoin:miter;stroke-miterlimit:10;stroke-dasharray:none;stroke-opacity:1" id="path3602" d="M 0,0 48,0"/></g><g id="g3604" transform="translate(-2e-4,23.9998)"><path style="fill:none;stroke:#000;stroke-width:.25;stroke-linecap:butt;stroke-linejoin:miter;stroke-miterlimit:10;stroke-dasharray:none;stroke-opacity:1" id="path3606" d="M 0,0 48,0"/></g><g id="g3608" transform="translate(-2e-4,25.9998)"><path style="fill:none;stroke:#000;stroke-width:.25;stroke-linecap:butt;stroke-linejoin:miter;stroke-miterlimit:10;stroke-dasharray:none;stroke-opacity:1" id="path3610" d="M 0,0 48,0"/></g><g id="g3612" transform="translate(-2e-4,27.9998)"><path style="fill:none;stroke:#000;stroke-width:.25;stroke-linecap:butt;stroke-linejoin:miter;stroke-miterlimit:10;stroke-dasharray:none;stroke-opacity:1" id="path3614" d="M 0,0 48,0"/></g><g id="g3616" transform="translate(-2e-4,29.9998)"><path style="fill:none;stroke:#000;stroke-width:.25;stroke-linecap:butt;stroke-linejoin:miter;stroke-miterlimit:10;stroke-dasharray:none;stroke-opacity:1" id="path3618" d="M 0,0 48,0"/></g><g id="g3620" transform="translate(-2e-4,31.9998)"><path style="fill:none;stroke:#000;stroke-width:.25;stroke-linecap:butt;stroke-linejoin:miter;stroke-miterlimit:10;stroke-dasharray:none;stroke-opacity:1" id="path3622" d="M 0,0 48,0"/></g><g id="g3624" transform="translate(-2e-4,33.9998)"><path style="fill:none;stroke:#000;stroke-width:.25;stroke-linecap:butt;stroke-linejoin:miter;stroke-miterlimit:10;stroke-dasharray:none;stroke-opacity:1" id="path3626" d="M 0,0 48,0"/></g><g id="g3628" transform="translate(-2e-4,35.9998)"><path style="fill:none;stroke:#000;stroke-width:.25;stroke-linecap:butt;stroke-linejoin:miter;stroke-miterlimit:10;stroke-dasharray:none;stroke-opacity:1" id="path3630" d="M 0,0 48,0"/></g><g id="g3632" transform="translate(-2e-4,37.9998)"><path style="fill:none;stroke:#000;stroke-width:.25;stroke-linecap:butt;stroke-linejoin:miter;stroke-miterlimit:10;stroke-dasharray:none;stroke-opacity:1" id="path3634" d="M 0,0 48,0"/></g><g id="g3636" transform="translate(-2e-4,39.9998)"><path style="fill:none;stroke:#000;stroke-width:.25;stroke-linecap:butt;stroke-linejoin:miter;stroke-miterlimit:10;stroke-dasharray:none;stroke-opacity:1" id="path3638" d="M 0,0 48,0"/></g><g id="g3640" transform="translate(-2e-4,41.9998)"><path style="fill:none;stroke:#000;stroke-width:.25;stroke-linecap:butt;stroke-linejoin:miter;stroke-miterlimit:10;stroke-dasharray:none;stroke-opacity:1" id="path3642" d="M 0,0 48,0"/></g><g id="g3644" transform="translate(-2e-4,43.9998)"><path style="fill:none;stroke:#000;stroke-width:.25;stroke-linecap:butt;stroke-linejoin:miter;stroke-miterlimit:10;stroke-dasharray:none;stroke-opacity:1" id="path3646" d="M 0,0 48,0"/></g><g id="g3648" transform="translate(-2e-4,45.9998)"><path style="fill:none;stroke:#000;stroke-width:.25;stroke-linecap:butt;stroke-linejoin:miter;stroke-miterlimit:10;stroke-dasharray:none;stroke-opacity:1" id="path3650" d="M 0,0 48,0"/></g></g></g><path style="fill:#000;fill-opacity:1;fill-rule:nonzero;stroke:none" id="path3652" d="M 0,0 48,0 48,48 0,48 0,0 Z m 0.25,47.749 47.499,0 0,-47.499 -47.499,0 0,47.499 z"/></g></g></g></g></g></g></g></g><g id="g3654"><g id="g3656" clip-path="url(#clipPath3658)"><g id="g3662" transform="matrix(1,0,0,-1,0,48)"><g id="g3664"><g id="g3666" clip-path="url(#clipPath3668)"><g id="g3672"><g id="g3684"><g id="g3686" clip-path="url(#clipPath3676)" style="opacity:.39999402"><g id="g3688"><g id="g3690" clip-path="url(#clipPath3680)"><g id="g3692" transform="translate(23.9998,1e-4)"><path style="fill:none;stroke:#000;stroke-width:.25;stroke-linecap:butt;stroke-linejoin:miter;stroke-miterlimit:10;stroke-dasharray:none;stroke-opacity:1" id="path3694" d="M 0,0 0,48"/></g><g id="g3696" transform="translate(47.9998,24.0001)"><path style="fill:none;stroke:#000;stroke-width:.25;stroke-linecap:butt;stroke-linejoin:miter;stroke-miterlimit:10;stroke-dasharray:none;stroke-opacity:1" id="path3698" d="M 0,0 -48,0"/></g><g id="g3700" transform="translate(47.9998,16.0001)"><path style="fill:none;stroke:#000;stroke-width:.25;stroke-linecap:butt;stroke-linejoin:miter;stroke-miterlimit:10;stroke-dasharray:none;stroke-opacity:1" id="path3702" d="M 0,0 -48,0"/></g><g id="g3704" transform="translate(47.9998,32.0001)"><path style="fill:none;stroke:#000;stroke-width:.25;stroke-linecap:butt;stroke-linejoin:miter;stroke-miterlimit:10;stroke-dasharray:none;stroke-opacity:1" id="path3706" d="M 0,0 -48,0"/></g><g id="g3708" transform="translate(31.9998,48.0001)"><path style="fill:none;stroke:#000;stroke-width:.25;stroke-linecap:butt;stroke-linejoin:miter;stroke-miterlimit:10;stroke-dasharray:none;stroke-opacity:1" id="path3710" d="M 0,0 0,-48"/></g><g id="g3712" transform="translate(15.9998,48.0001)"><path style="fill:none;stroke:#000;stroke-width:.25;stroke-linecap:butt;stroke-linejoin:miter;stroke-miterlimit:10;stroke-dasharray:none;stroke-opacity:1" id="path3714" d="M 0,0 0,-48"/></g><g id="g3716" transform="translate(47.7498,0.2501)"><path style="fill:none;stroke:#000;stroke-width:.25;stroke-linecap:butt;stroke-linejoin:miter;stroke-miterlimit:10;stroke-dasharray:none;stroke-opacity:1" id="path3718" d="M 0,0 -47.5,47.5"/></g><g id="g3720" transform="translate(0.2498,0.2501)"><path style="fill:none;stroke:#000;stroke-width:.25;stroke-linecap:butt;stroke-linejoin:miter;stroke-miterlimit:10;stroke-dasharray:none;stroke-opacity:1" id="path3722" d="M 0,0 47.5,47.5"/></g><g id="g3724" transform="translate(24.0005,13.9999)"><path style="fill:none;stroke:#000;stroke-width:.25;stroke-linecap:butt;stroke-linejoin:miter;stroke-miterlimit:10;stroke-dasharray:none;stroke-opacity:1" id="path3726" d="m 0,0 c -5.523,0 -10,4.477 -10,10 0,5.522 4.477,10 10,10 C 5.522,20 10,15.522 10,10 10,4.477 5.522,0 0,0 Z"/></g><g id="g3728" transform="translate(23.9998,4.0001)"><path style="fill:none;stroke:#000;stroke-width:.25;stroke-linecap:butt;stroke-linejoin:miter;stroke-miterlimit:10;stroke-dasharray:none;stroke-opacity:1" id="path3730" d="m 0,0 c -11.054,0 -20,8.947 -20,20 0,11.053 8.946,20 20,20 C 11.053,40 20,31.053 20,20 20,8.947 11.053,0 0,0 Z"/></g><g id="g3732" transform="translate(37.9998,6.0001)"><path style="fill:none;stroke:#000;stroke-width:.25;stroke-linecap:butt;stroke-linejoin:miter;stroke-miterlimit:10;stroke-dasharray:none;stroke-opacity:1" id="path3734" d="m 0,0 -28,0 c -2.211,0 -4,1.791 -4,4 l 0,28 c 0,2.209 1.789,4 4,4 l 28,0 c 2.211,0 4,-1.791 4,-4 L 4,4 C 4,1.791 2.211,0 0,0 Z"/></g><g id="g3736" transform="translate(39.9998,8.0001)"><path style="fill:none;stroke:#000;stroke-width:.25;stroke-linecap:butt;stroke-linejoin:miter;stroke-miterlimit:10;stroke-dasharray:none;stroke-opacity:1" id="path3738" d="m 0,0 -32,0 c -2.209,0 -4,1.791 -4,4 l 0,24 c 0,2.209 1.791,4 4,4 l 32,0 c 2.209,0 4,-1.791 4,-4 L 4,4 C 4,1.791 2.209,0 0,0 Z"/></g><g id="g3740" transform="translate(39.9998,40.0001)"><path style="fill:none;stroke:#000;stroke-width:.25;stroke-linecap:butt;stroke-linejoin:miter;stroke-miterlimit:10;stroke-dasharray:none;stroke-opacity:1" id="path3742" d="m 0,0 0,-32 c 0,-2.209 -1.791,-4 -4,-4 l -24,0 c -2.209,0 -4,1.791 -4,4 l 0,32 c 0,2.209 1.791,4 4,4 L -4,4 C -1.791,4 0,2.209 0,0 Z"/></g><path style="fill:#000;fill-opacity:1;fill-rule:nonzero;stroke:none" id="path3744" d="M 48,0 0,0 0,48 48,48 48,0 Z m -0.25,47.75 -47.5,0 0,-47.5 47.5,0 0,47.5 z"/></g></g></g></g></g></g></g></g></g></g></g></svg>