<svg xmlns="http://www.w3.org/2000/svg" xmlns:svg="http://www.w3.org/2000/svg" id="svg2" width="480" height="480" version="1.1" viewBox="0 0 480 480"><metadata id="metadata10"/><path id="path4" d="m 220,180 40,0 0,40 -40,0 z m -40,40 40,0 0,40 -40,0 z m 80,0 40,0 0,40 -40,0 z m 40,-40 40,0 0,40 -40,0 z m -160,0 40,0 0,40 -40,0 z M 380,60 100,60 C 78,60 60,78 60,100 l 0,280 c 0,22 18,40 40,40 l 280,0 c 22,0 40,-18 40,-40 l 0,-280 C 420,78 402,60 380,60 Z m -200,300 -40,0 0,-40 40,0 0,40 z m 80,0 -40,0 0,-40 40,0 0,40 z m 80,0 -40,0 0,-40 40,0 0,40 z m 40,-140 -40,0 0,40 40,0 0,40 -40,0 0,-40 -40,0 0,40 -40,0 0,-40 -40,0 0,40 -40,0 0,-40 -40,0 0,40 -40,0 0,-40 40,0 0,-40 -40,0 0,-120 280,0 0,120 z"/></svg>