<svg xmlns="http://www.w3.org/2000/svg" xmlns:svg="http://www.w3.org/2000/svg" id="svg2" width="1792" height="1792" version="1.1" viewBox="0 0 1792 1792"><metadata id="metadata10"/><path id="path4" d="m 1516.4811,1203.3673 q -34.7434,111.3569 -109.5752,222.7139 -114.9204,174.6077 -228.95,174.6077 -43.6519,0 -124.7198,-28.5073 -76.61366,-28.5076 -134.51929,-28.5076 -54.34221,0 -126.50153,29.3983 -72.15931,30.2892 -117.59297,30.2892 -135.41009,0 -268.14761,-230.7316 -130.95581,-232.5135 -130.95581,-448.10043 0,-203.11519 100.66671,-333.18014 99.77586,-128.28325 253.00306,-128.28325 64.14162,0 157.68148,26.72568 92.64901,26.72567 122.93811,26.72567 40.08852,0 127.39235,-30.2891 90.8674,-30.28909 154.1181,-30.28909 106.0119,0 189.7523,57.90563 46.3246,32.0708 92.6491,89.08559 -70.3777,59.68734 -101.5577,105.12099 -57.9057,83.74044 -57.9057,184.40715 0,110.466 61.4691,198.6607 61.4692,88.1948 140.7552,112.248 z M 1181.5193,158.39339 q 0,54.34221 -25.8349,121.1564 -26.7257,66.81418 -82.8496,122.93812 -48.1061,48.1062 -96.21236,64.14162 -32.96167,9.79941 -92.64901,15.14455 2.67257,-132.73752 69.48676,-228.94995 65.92331,-95.32158 222.71391,-131.84667 0.8909,2.67257 2.2271,9.79941 1.3364,7.12684 2.2271,9.79942 0,3.56342 0.4455,8.90855 0.4454,5.34514 0.4454,8.90856 z"/></svg>