<svg xmlns="http://www.w3.org/2000/svg" xmlns:svg="http://www.w3.org/2000/svg" id="svg3390" width="60" height="60" version="1.1" viewBox="0 0 60 60" xml:space="preserve"><metadata id="metadata3396"/><defs id="defs3394"><clipPath id="clipPath3404" clipPathUnits="userSpaceOnUse"><path id="path3406" d="M 0,48 48,48 48,0 0,0 0,48 Z"/></clipPath><clipPath id="clipPath3416" clipPathUnits="userSpaceOnUse"><path id="path3418" d="M 0,48 48,48 48,0 0,0 0,48 Z"/></clipPath><clipPath id="clipPath3426" clipPathUnits="userSpaceOnUse"><path id="path3428" d="M 0,48 48,48 48,0 0,0 0,48 Z"/></clipPath><clipPath id="clipPath3434" clipPathUnits="userSpaceOnUse"><path id="path3436" d="M 0,48 48,48 48,0 0,0 0,48 Z"/></clipPath><clipPath id="clipPath3442" clipPathUnits="userSpaceOnUse"><path id="path3444" d="m -2.13623e-4,48.0002 48.000013623,0 0,-48.000047412 -48.000013623,0 0,48.000047412 z"/></clipPath><clipPath id="clipPath3446" clipPathUnits="userSpaceOnUse"><path id="path3448" d="m -2.13623e-4,47.9998 48.000013623,0 0,-47.999952588 -48.000013623,0 0,47.999952588 z"/></clipPath><clipPath id="clipPath3450" clipPathUnits="userSpaceOnUse"><path id="path3452" d="M 48,48 0,48 0,0 48,0 48,48 Z"/></clipPath><clipPath id="clipPath3658" clipPathUnits="userSpaceOnUse"><path id="path3660" d="M 0,48 48,48 48,0 0,0 0,48 Z"/></clipPath><clipPath id="clipPath3668" clipPathUnits="userSpaceOnUse"><path id="path3670" d="m -2.28882e-4,48.0001 48.000028882,0 0,-47.99997793 -48.000028882,0 0,47.99997793 z"/></clipPath><clipPath id="clipPath3676" clipPathUnits="userSpaceOnUse"><path id="path3678" d="m -2.28882e-4,48.0001 48.000028882,0 0,-47.99997793 -48.000028882,0 0,47.99997793 z"/></clipPath><clipPath id="clipPath3680" clipPathUnits="userSpaceOnUse"><path id="path3682" d="M 0,0 48,0 48,48 0,48 0,0 Z"/></clipPath></defs><g id="g3398" transform="matrix(1.25,0,0,-1.25,0,60)"><path id="path3378" d="M 12.400001,16.8 C 9.9800006,16.8 8,14.819999 8,12.399999 8,9.9800001 9.9800006,8 12.400001,8 14.820001,8 16.8,9.9800001 16.8,12.399999 16.8,14.819999 14.820001,16.8 12.400001,16.8 Z"/><path id="path3383" d="m 8,28.334842 0,-5.809955 c 8.017737,0 14.524887,-6.50715 14.524887,-14.524887 l 5.809954,0 C 28.334841,19.242263 19.242263,28.334842 8,28.334842 Z"/><path id="path3379" d="M 8,40.000002 8,34.181819 C 22.458181,34.181819 34.181819,22.458182 34.181819,8 L 40,8 C 40,25.687274 25.687273,40.000002 8,40.000002 Z"/></g></svg>