<svg xmlns="http://www.w3.org/2000/svg" xmlns:svg="http://www.w3.org/2000/svg" xmlns:xlink="http://www.w3.org/1999/xlink" id="svg2" width="240" height="240" version="1.1" viewBox="0 0 240 240"><metadata id="metadata20"/><defs id="defs4"><path id="a" d="M 0,0 24,0 24,24 0,24 0,0 Z"/></defs><defs id="defs7"><path id="c" d="M 0,0 24,0 24,24 0,24 0,0 Z"/></defs><clipPath id="b"><use style="overflow:visible" id="use11" width="100%" height="100%" x="0" y="0" overflow="visible" xlink:href="#a"/></clipPath><clipPath id="d" clip-path="url(#b)"><use style="overflow:visible" id="use14" width="100%" height="100%" x="0" y="0" overflow="visible" xlink:href="#c"/></clipPath><path id="path16" d="m 2.5,19 19,0 0,2 -19,0 z m 7.18,-5.73 4.35,1.16 5.31,1.42 c 0.8,0.21 1.62,-0.26 1.84,-1.06 0.21,-0.8 -0.26,-1.62 -1.06,-1.84 L 14.81,11.53 12.05,2.51 10.12,2 l 0,8.28 L 5.15,8.95 4.22,6.63 2.77,6.24 l 0,5.17 1.6,0.43 5.31,1.43 z" clip-path="url(#d)" transform="matrix(10,0,0,10,0,5)"/></svg>