<svg xmlns="http://www.w3.org/2000/svg" xmlns:svg="http://www.w3.org/2000/svg" id="svg3390" width="480" height="480" version="1.1" viewBox="0 0 480 480" xml:space="preserve"><metadata id="metadata3396"/><defs id="defs3394"><clipPath id="clipPath3404" clipPathUnits="userSpaceOnUse"><path id="path3406" d="M 0,48 48,48 48,0 0,0 0,48 Z"/></clipPath><clipPath id="clipPath3416" clipPathUnits="userSpaceOnUse"><path id="path3418" d="M 0,48 48,48 48,0 0,0 0,48 Z"/></clipPath><clipPath id="clipPath3426" clipPathUnits="userSpaceOnUse"><path id="path3428" d="M 0,48 48,48 48,0 0,0 0,48 Z"/></clipPath><clipPath id="clipPath3434" clipPathUnits="userSpaceOnUse"><path id="path3436" d="M 0,48 48,48 48,0 0,0 0,48 Z"/></clipPath><clipPath id="clipPath3442" clipPathUnits="userSpaceOnUse"><path id="path3444" d="m -2.13623e-4,48.0002 48.000013623,0 0,-48.000047412 -48.000013623,0 0,48.000047412 z"/></clipPath><clipPath id="clipPath3446" clipPathUnits="userSpaceOnUse"><path id="path3448" d="m -2.13623e-4,47.9998 48.000013623,0 0,-47.999952588 -48.000013623,0 0,47.999952588 z"/></clipPath><clipPath id="clipPath3450" clipPathUnits="userSpaceOnUse"><path id="path3452" d="M 48,48 0,48 0,0 48,0 48,48 Z"/></clipPath><clipPath id="clipPath3658" clipPathUnits="userSpaceOnUse"><path id="path3660" d="M 0,48 48,48 48,0 0,0 0,48 Z"/></clipPath><clipPath id="clipPath3668" clipPathUnits="userSpaceOnUse"><path id="path3670" d="m -2.28882e-4,48.0001 48.000028882,0 0,-47.99997793 -48.000028882,0 0,47.99997793 z"/></clipPath><clipPath id="clipPath3676" clipPathUnits="userSpaceOnUse"><path id="path3678" d="m -2.28882e-4,48.0001 48.000028882,0 0,-47.99997793 -48.000028882,0 0,47.99997793 z"/></clipPath><clipPath id="clipPath3680" clipPathUnits="userSpaceOnUse"><path id="path3682" d="M 0,0 48,0 48,48 0,48 0,0 Z"/></clipPath></defs><g id="g3398" transform="matrix(1.25,0,0,-1.25,0,480)"><path id="path3762" style="fill:#000"/><path id="path3760" style="fill:#000"/><path id="path3758" style="fill:#000"/><path style="fill:#000" id="path3843" d="m 217.95334,32 0,145.96626 49.53431,0 7.41463,56.88377 -56.94894,0 0,36.32036 c 0,16.46737 4.62605,27.69308 28.50034,27.69308 l 30.45429,0.016 0,50.88051 C 271.64139,350.45118 253.56421,352 232.53025,352 c -43.90542,0 -73.96504,-26.50907 -73.96504,-75.19435 l 0,-41.95242 -49.65724,0 0,-56.88377 49.65724,0 0,-145.96626 59.38813,0 z"/></g></svg>