<svg xmlns="http://www.w3.org/2000/svg" xmlns:svg="http://www.w3.org/2000/svg" id="svg3390" width="480" height="480" version="1.1" viewBox="0 0 480 480" xml:space="preserve"><metadata id="metadata3396"/><defs id="defs3394"><clipPath id="clipPath3404" clipPathUnits="userSpaceOnUse"><path id="path3406" d="M 0,48 48,48 48,0 0,0 0,48 Z"/></clipPath><clipPath id="clipPath3416" clipPathUnits="userSpaceOnUse"><path id="path3418" d="M 0,48 48,48 48,0 0,0 0,48 Z"/></clipPath><clipPath id="clipPath3426" clipPathUnits="userSpaceOnUse"><path id="path3428" d="M 0,48 48,48 48,0 0,0 0,48 Z"/></clipPath><clipPath id="clipPath3434" clipPathUnits="userSpaceOnUse"><path id="path3436" d="M 0,48 48,48 48,0 0,0 0,48 Z"/></clipPath><clipPath id="clipPath3442" clipPathUnits="userSpaceOnUse"><path id="path3444" d="m -2.13623e-4,48.0002 48.000013623,0 0,-48.000047412 -48.000013623,0 0,48.000047412 z"/></clipPath><clipPath id="clipPath3446" clipPathUnits="userSpaceOnUse"><path id="path3448" d="m -2.13623e-4,47.9998 48.000013623,0 0,-47.999952588 -48.000013623,0 0,47.999952588 z"/></clipPath><clipPath id="clipPath3450" clipPathUnits="userSpaceOnUse"><path id="path3452" d="M 48,48 0,48 0,0 48,0 48,48 Z"/></clipPath><clipPath id="clipPath3658" clipPathUnits="userSpaceOnUse"><path id="path3660" d="M 0,48 48,48 48,0 0,0 0,48 Z"/></clipPath><clipPath id="clipPath3668" clipPathUnits="userSpaceOnUse"><path id="path3670" d="m -2.28882e-4,48.0001 48.000028882,0 0,-47.99997793 -48.000028882,0 0,47.99997793 z"/></clipPath><clipPath id="clipPath3676" clipPathUnits="userSpaceOnUse"><path id="path3678" d="m -2.28882e-4,48.0001 48.000028882,0 0,-47.99997793 -48.000028882,0 0,47.99997793 z"/></clipPath><clipPath id="clipPath3680" clipPathUnits="userSpaceOnUse"><path id="path3682" d="M 0,0 48,0 48,48 0,48 0,0 Z"/></clipPath></defs><g id="g3398" transform="matrix(1.25,0,0,-1.25,0,480)"><path style="fill:#000" id="path3762"/><path style="fill:#000" id="path3760"/><path style="fill:#000" id="path3758"/><path id="path3931" d="M 192,348 C 103.68,348 32.000001,276.3769 32.000001,188.127 c 0,-70.66387 45.92,-130.616253 109.439999,-151.879363 8,-1.278984 10.56,3.677079 10.56,7.993651 0,3.677079 0,13.749078 0,27.018537 -44.32,-9.59238 -53.759999,21.422983 -53.759999,21.422983 -7.36,18.545272 -17.76,23.501342 -17.76,23.501342 -14.56,9.91212 1.12,9.59238 1.12,9.59238 16,-1.11911 24.479999,-16.46692 24.479999,-16.46692 13.92,-24.300706 37.44,-17.106421 46.56,-13.269469 1.44,10.391749 5.6,17.426159 10.08,21.422989 -35.52,3.99683 -72.799999,17.7459 -72.799999,78.65752 0,17.7459 6.08,31.9746 16.479999,43.32558 -1.6,3.99683 -7.199999,20.62362 1.6,42.20648 0,0 13.44,4.31657 44,-16.30705 12.64,3.51721 26.4,5.27581 40,5.27581 13.6,0 27.36,-1.7586 40,-5.27581 30.56,20.62362 44,16.30705 44,16.30705 8.8,-21.58286 3.2,-38.20965 1.6,-42.20648 10.4,-11.35098 16.48,-25.57968 16.48,-43.32558 0,-61.07149 -37.44,-74.50082 -73.12,-78.49765 5.76,-4.95606 11.04,-14.70831 11.04,-29.576509 0,-21.422983 0,-38.689267 0,-43.805203 0,-4.316572 2.56,-9.432508 10.72,-7.993651 C 306.24,57.67062 352,117.46313 352,188.127 352,276.3769 280.32,348 192,348 Z"/></g></svg>