<svg xmlns="http://www.w3.org/2000/svg" xmlns:svg="http://www.w3.org/2000/svg" id="svg3390" width="480" height="480" version="1.1" viewBox="0 0 480 480" xml:space="preserve"><metadata id="metadata3396"/><defs id="defs3394"><clipPath id="clipPath3404" clipPathUnits="userSpaceOnUse"><path id="path3406" d="M 0,48 48,48 48,0 0,0 0,48 Z"/></clipPath><clipPath id="clipPath3416" clipPathUnits="userSpaceOnUse"><path id="path3418" d="M 0,48 48,48 48,0 0,0 0,48 Z"/></clipPath><clipPath id="clipPath3426" clipPathUnits="userSpaceOnUse"><path id="path3428" d="M 0,48 48,48 48,0 0,0 0,48 Z"/></clipPath><clipPath id="clipPath3434" clipPathUnits="userSpaceOnUse"><path id="path3436" d="M 0,48 48,48 48,0 0,0 0,48 Z"/></clipPath><clipPath id="clipPath3442" clipPathUnits="userSpaceOnUse"><path id="path3444" d="m -2.13623e-4,48.0002 48.000013623,0 0,-48.000047412 -48.000013623,0 0,48.000047412 z"/></clipPath><clipPath id="clipPath3446" clipPathUnits="userSpaceOnUse"><path id="path3448" d="m -2.13623e-4,47.9998 48.000013623,0 0,-47.999952588 -48.000013623,0 0,47.999952588 z"/></clipPath><clipPath id="clipPath3450" clipPathUnits="userSpaceOnUse"><path id="path3452" d="M 48,48 0,48 0,0 48,0 48,48 Z"/></clipPath><clipPath id="clipPath3658" clipPathUnits="userSpaceOnUse"><path id="path3660" d="M 0,48 48,48 48,0 0,0 0,48 Z"/></clipPath><clipPath id="clipPath3668" clipPathUnits="userSpaceOnUse"><path id="path3670" d="m -2.28882e-4,48.0001 48.000028882,0 0,-47.99997793 -48.000028882,0 0,47.99997793 z"/></clipPath><clipPath id="clipPath3676" clipPathUnits="userSpaceOnUse"><path id="path3678" d="m -2.28882e-4,48.0001 48.000028882,0 0,-47.99997793 -48.000028882,0 0,47.99997793 z"/></clipPath><clipPath id="clipPath3680" clipPathUnits="userSpaceOnUse"><path id="path3682" d="M 0,0 48,0 48,48 0,48 0,0 Z"/></clipPath></defs><g id="g3398" transform="matrix(1.25,0,0,-1.25,0,480)"><path style="fill:#000" id="path3762"/><path style="fill:#000" id="path3760"/><path style="fill:#000" id="path3758"/><g id="g3963" transform="matrix(6.3996467,0,0,-6.3895345,32.017666,351.5901)"><path id="path3953" d="m 16.026,21.997 c 0.001,2.085 -0.002,4.17 0.001,6.255 2.911,-10e-4 5.823,-10e-4 8.733,0 -0.337,1.998 -1.525,3.825 -3.209,4.95 -1.058,0.712 -2.275,1.174 -3.529,1.393 -1.262,0.215 -2.566,0.243 -3.825,-0.012 -1.28,-0.255 -2.502,-0.789 -3.568,-1.54 -1.704,-1.198 -3.005,-2.95 -3.673,-4.921 -0.683,-2.006 -0.688,-4.237 0.003,-6.241 0.479,-1.412 1.278,-2.717 2.326,-3.778 1.293,-1.324 2.975,-2.27 4.786,-2.658 1.551,-0.331 3.187,-0.268 4.705,0.192 1.291,0.392 2.481,1.099 3.455,2.03 0.985,-0.98 1.965,-1.965 2.949,-2.946 0.516,-0.528 1.058,-1.033 1.557,-1.576 C 25.243,11.763 23.493,10.652 21.58,9.949 18.136,8.681 14.252,8.655 10.785,9.855 c -3.907,1.338 -7.234,4.26 -9.079,7.953 -0.642,1.273 -1.111,2.631 -1.393,4.028 -0.709,3.481 -0.215,7.192 1.391,10.363 1.044,2.069 2.54,3.909 4.354,5.351 1.712,1.365 3.708,2.374 5.823,2.936 2.67,0.716 5.512,0.7 8.199,0.088 2.429,-0.559 4.727,-1.719 6.561,-3.413 1.939,-1.782 3.323,-4.13 4.055,-6.653 C 31.495,27.756 31.605,24.817 31.104,22 26.077,21.998 21.05,21.999 16.023,21.999 Z" style="fill:#000"/><path id="path3955" d="m 50,22.337 -5.488,0 0,-5.488 -3.992,0 0,5.488 -5.488,0 0,3.992 5.488,0 0,5.488 3.992,0 0,-5.488 5.488,0 z" style="fill:#000"/></g></g></svg>