<svg xmlns="http://www.w3.org/2000/svg" xmlns:svg="http://www.w3.org/2000/svg" id="svg3390" width="480" height="480" version="1.1" viewBox="0 0 480 480" xml:space="preserve"><metadata id="metadata3396"/><defs id="defs3394"><clipPath id="clipPath3404" clipPathUnits="userSpaceOnUse"><path id="path3406" d="M 0,48 48,48 48,0 0,0 0,48 Z"/></clipPath><clipPath id="clipPath3416" clipPathUnits="userSpaceOnUse"><path id="path3418" d="M 0,48 48,48 48,0 0,0 0,48 Z"/></clipPath><clipPath id="clipPath3426" clipPathUnits="userSpaceOnUse"><path id="path3428" d="M 0,48 48,48 48,0 0,0 0,48 Z"/></clipPath><clipPath id="clipPath3434" clipPathUnits="userSpaceOnUse"><path id="path3436" d="M 0,48 48,48 48,0 0,0 0,48 Z"/></clipPath><clipPath id="clipPath3442" clipPathUnits="userSpaceOnUse"><path id="path3444" d="m -2.13623e-4,48.0002 48.000013623,0 0,-48.000047412 -48.000013623,0 0,48.000047412 z"/></clipPath><clipPath id="clipPath3446" clipPathUnits="userSpaceOnUse"><path id="path3448" d="m -2.13623e-4,47.9998 48.000013623,0 0,-47.999952588 -48.000013623,0 0,47.999952588 z"/></clipPath><clipPath id="clipPath3450" clipPathUnits="userSpaceOnUse"><path id="path3452" d="M 48,48 0,48 0,0 48,0 48,48 Z"/></clipPath><clipPath id="clipPath3658" clipPathUnits="userSpaceOnUse"><path id="path3660" d="M 0,48 48,48 48,0 0,0 0,48 Z"/></clipPath><clipPath id="clipPath3668" clipPathUnits="userSpaceOnUse"><path id="path3670" d="m -2.28882e-4,48.0001 48.000028882,0 0,-47.99997793 -48.000028882,0 0,47.99997793 z"/></clipPath><clipPath id="clipPath3676" clipPathUnits="userSpaceOnUse"><path id="path3678" d="m -2.28882e-4,48.0001 48.000028882,0 0,-47.99997793 -48.000028882,0 0,47.99997793 z"/></clipPath><clipPath id="clipPath3680" clipPathUnits="userSpaceOnUse"><path id="path3682" d="M 0,0 48,0 48,48 0,48 0,0 Z"/></clipPath></defs><g id="g3398" transform="matrix(1.25,0,0,-1.25,0,480)"><path id="path3762" style="fill:#000"/><path id="path3760" style="fill:#000"/><path id="path3758" style="fill:#000"/><path id="path3968" d="m 196,214.4 0,-55.2 92,0 C 283.2,136 260.8,90.4 196,90.4 140.8,90.4 97.600001,136 97.600001,191.2 97.600001,246.4 140.8,292 196,292 c 32,0 52.8,-13.6 64,-24.8 l 43.2,41.6 c -27.2,27.2 -64,43.2 -108,43.2 -89.6,0 -160,-71.2 -160,-160 0,-88.8 71.2,-160 160,-160 92,0 153.6,64 153.6,156 0,11.2 0,18.4 -2.4,27.2 l -150.4,0 z"/></g></svg>