<svg xmlns="http://www.w3.org/2000/svg" xmlns:svg="http://www.w3.org/2000/svg" id="svg3390" width="480" height="480" version="1.1" viewBox="0 0 480 480" xml:space="preserve"><metadata id="metadata3396"/><defs id="defs3394"><clipPath id="clipPath3404" clipPathUnits="userSpaceOnUse"><path id="path3406" d="M 0,48 48,48 48,0 0,0 0,48 Z"/></clipPath><clipPath id="clipPath3416" clipPathUnits="userSpaceOnUse"><path id="path3418" d="M 0,48 48,48 48,0 0,0 0,48 Z"/></clipPath><clipPath id="clipPath3426" clipPathUnits="userSpaceOnUse"><path id="path3428" d="M 0,48 48,48 48,0 0,0 0,48 Z"/></clipPath><clipPath id="clipPath3434" clipPathUnits="userSpaceOnUse"><path id="path3436" d="M 0,48 48,48 48,0 0,0 0,48 Z"/></clipPath><clipPath id="clipPath3442" clipPathUnits="userSpaceOnUse"><path id="path3444" d="m -2.13623e-4,48.0002 48.000013623,0 0,-48.000047412 -48.000013623,0 0,48.000047412 z"/></clipPath><clipPath id="clipPath3446" clipPathUnits="userSpaceOnUse"><path id="path3448" d="m -2.13623e-4,47.9998 48.000013623,0 0,-47.999952588 -48.000013623,0 0,47.999952588 z"/></clipPath><clipPath id="clipPath3450" clipPathUnits="userSpaceOnUse"><path id="path3452" d="M 48,48 0,48 0,0 48,0 48,48 Z"/></clipPath><clipPath id="clipPath3658" clipPathUnits="userSpaceOnUse"><path id="path3660" d="M 0,48 48,48 48,0 0,0 0,48 Z"/></clipPath><clipPath id="clipPath3668" clipPathUnits="userSpaceOnUse"><path id="path3670" d="m -2.28882e-4,48.0001 48.000028882,0 0,-47.99997793 -48.000028882,0 0,47.99997793 z"/></clipPath><clipPath id="clipPath3676" clipPathUnits="userSpaceOnUse"><path id="path3678" d="m -2.28882e-4,48.0001 48.000028882,0 0,-47.99997793 -48.000028882,0 0,47.99997793 z"/></clipPath><clipPath id="clipPath3680" clipPathUnits="userSpaceOnUse"><path id="path3682" d="M 0,0 48,0 48,48 0,48 0,0 Z"/></clipPath></defs><g id="g3398" transform="matrix(1.25,0,0,-1.25,0,480)"><path id="path3762" style="fill:#000"/><path id="path3760" style="fill:#000"/><path id="path3758" style="fill:#000"/><g id="g4012" transform="matrix(4.4382802,0,0,-4.4444444,31.999999,352)"><path id="path4001" d="M 72,7.6 C 72,3.4 68.6,0 64.4,0 L 7.6,0 C 3.4,0 0,3.4 0,7.6 L 0,64.5 C 0,68.6 3.4,72 7.6,72 l 56.9,0 c 4.2,0 7.6,-3.4 7.6,-7.6 l 0,-56.8 z"/><path style="fill:#fff" id="path4003" d="m 67.5,33.1 -5.7,0 0,-5.7 -5.8,0 0,5.7 -5.7,0 0,5.7 5.7,0 0,5.7 5.7,0 0,-5.7 5.7,0 m -42.9,-5.7 0,6.9 11.5,0 c -0.6,2.9 -3.4,8.6 -11.5,8.6 -6.9,0 -12.3,-5.7 -12.3,-12.6 0,-6.9 5.4,-12.6 12.3,-12.6 4,0 6.6,1.7 8,3.1 l 5.4,-5.2 C 34.6,18 30,16 24.5,16 c -11.2,0 -20,8.9 -20,20 0,11.1 8.9,20 20,20 11.5,0 19.2,-8 19.2,-19.5 0,-1.4 0,-2.3 -0.3,-3.4 l -18.9,0 z" class="st0"/></g></g><style id="style3999" type="text/css">.st0{fill:#fff}</style></svg>