<svg xmlns="http://www.w3.org/2000/svg" xmlns:svg="http://www.w3.org/2000/svg" id="svg3390" width="480" height="480" version="1.1" viewBox="0 0 480 480" xml:space="preserve"><metadata id="metadata3396"/><defs id="defs3394"><clipPath id="clipPath3404" clipPathUnits="userSpaceOnUse"><path id="path3406" d="M 0,48 48,48 48,0 0,0 0,48 Z"/></clipPath><clipPath id="clipPath3416" clipPathUnits="userSpaceOnUse"><path id="path3418" d="M 0,48 48,48 48,0 0,0 0,48 Z"/></clipPath><clipPath id="clipPath3426" clipPathUnits="userSpaceOnUse"><path id="path3428" d="M 0,48 48,48 48,0 0,0 0,48 Z"/></clipPath><clipPath id="clipPath3434" clipPathUnits="userSpaceOnUse"><path id="path3436" d="M 0,48 48,48 48,0 0,0 0,48 Z"/></clipPath><clipPath id="clipPath3442" clipPathUnits="userSpaceOnUse"><path id="path3444" d="m -2.13623e-4,48.0002 48.000013623,0 0,-48.000047412 -48.000013623,0 0,48.000047412 z"/></clipPath><clipPath id="clipPath3446" clipPathUnits="userSpaceOnUse"><path id="path3448" d="m -2.13623e-4,47.9998 48.000013623,0 0,-47.999952588 -48.000013623,0 0,47.999952588 z"/></clipPath><clipPath id="clipPath3450" clipPathUnits="userSpaceOnUse"><path id="path3452" d="M 48,48 0,48 0,0 48,0 48,48 Z"/></clipPath><clipPath id="clipPath3658" clipPathUnits="userSpaceOnUse"><path id="path3660" d="M 0,48 48,48 48,0 0,0 0,48 Z"/></clipPath><clipPath id="clipPath3668" clipPathUnits="userSpaceOnUse"><path id="path3670" d="m -2.28882e-4,48.0001 48.000028882,0 0,-47.99997793 -48.000028882,0 0,47.99997793 z"/></clipPath><clipPath id="clipPath3676" clipPathUnits="userSpaceOnUse"><path id="path3678" d="m -2.28882e-4,48.0001 48.000028882,0 0,-47.99997793 -48.000028882,0 0,47.99997793 z"/></clipPath><clipPath id="clipPath3680" clipPathUnits="userSpaceOnUse"><path id="path3682" d="M 0,0 48,0 48,48 0,48 0,0 Z"/></clipPath></defs><g id="g3398" transform="matrix(1.25,0,0,-1.25,0,480)"><path id="path3762" style="fill:#000"/><path id="path3760" style="fill:#000"/><path id="path3758" style="fill:#000"/><path style="fill:#000" id="path4200" d="m 230.55152,351.9936 -115.2246,0 c -7.89288,0 -14.58871,-5.7344 -15.817777,-13.5168 L 52.919996,43.0912 C 51.998199,37.2672 56.504761,32 62.40042,32 l 55.02615,0 c 7.87368,0 14.57591,5.7344 15.80497,13.504 l 12.57869,79.6992 c 1.21626,7.7824 7.93769,13.5168 15.80497,13.5168 l 36.45579,0 c 75.8946,0 119.70555,36.7168 131.1512,109.504 5.1595,31.8144 0.21124,56.8256 -14.69114,74.336 -16.3875,19.2512 -45.4305,29.44 -83.97953,29.44 z M 243.84716,244.1024 C 237.54822,202.752 205.96387,202.752 175.40375,202.752 l -17.37971,0 12.201,77.2032 c 0.72336,4.6656 4.74982,8.096 9.48043,8.096 l 7.9761,0 c 20.79804,0 40.43743,0 50.5708,-11.84 6.05569,-7.0912 7.88648,-17.6 5.60119,-32.1088 z"/></g><style id="style3999" type="text/css"/><style id="style4048" type="text/css"/></svg>