<svg xmlns="http://www.w3.org/2000/svg" xmlns:svg="http://www.w3.org/2000/svg" id="svg3390" width="480" height="480" version="1.1" viewBox="0 0 480 480" xml:space="preserve"><metadata id="metadata3396"/><defs id="defs3394"><clipPath id="clipPath3404" clipPathUnits="userSpaceOnUse"><path id="path3406" d="M 0,48 48,48 48,0 0,0 0,48 Z"/></clipPath><clipPath id="clipPath3416" clipPathUnits="userSpaceOnUse"><path id="path3418" d="M 0,48 48,48 48,0 0,0 0,48 Z"/></clipPath><clipPath id="clipPath3426" clipPathUnits="userSpaceOnUse"><path id="path3428" d="M 0,48 48,48 48,0 0,0 0,48 Z"/></clipPath><clipPath id="clipPath3434" clipPathUnits="userSpaceOnUse"><path id="path3436" d="M 0,48 48,48 48,0 0,0 0,48 Z"/></clipPath><clipPath id="clipPath3442" clipPathUnits="userSpaceOnUse"><path id="path3444" d="m -2.13623e-4,48.0002 48.000013623,0 0,-48.000047412 -48.000013623,0 0,48.000047412 z"/></clipPath><clipPath id="clipPath3446" clipPathUnits="userSpaceOnUse"><path id="path3448" d="m -2.13623e-4,47.9998 48.000013623,0 0,-47.999952588 -48.000013623,0 0,47.999952588 z"/></clipPath><clipPath id="clipPath3450" clipPathUnits="userSpaceOnUse"><path id="path3452" d="M 48,48 0,48 0,0 48,0 48,48 Z"/></clipPath><clipPath id="clipPath3658" clipPathUnits="userSpaceOnUse"><path id="path3660" d="M 0,48 48,48 48,0 0,0 0,48 Z"/></clipPath><clipPath id="clipPath3668" clipPathUnits="userSpaceOnUse"><path id="path3670" d="m -2.28882e-4,48.0001 48.000028882,0 0,-47.99997793 -48.000028882,0 0,47.99997793 z"/></clipPath><clipPath id="clipPath3676" clipPathUnits="userSpaceOnUse"><path id="path3678" d="m -2.28882e-4,48.0001 48.000028882,0 0,-47.99997793 -48.000028882,0 0,47.99997793 z"/></clipPath><clipPath id="clipPath3680" clipPathUnits="userSpaceOnUse"><path id="path3682" d="M 0,0 48,0 48,48 0,48 0,0 Z"/></clipPath></defs><g id="g3398" transform="matrix(1.25,0,0,-1.25,0,480)"><path id="path3762" style="fill:#000"/><path id="path3760" style="fill:#000"/><path id="path3758" style="fill:#000"/><g id="g4232" transform="matrix(6.4000084,0,0,-6.3177846,31.987871,349.9383)"><path style="fill:#000" id="path4222" d="m 49.951,33.375 c -0.525,-2.36 -4.293,-3.638 -10.094,-4.065 -4.162,-0.295 -8.258,0.623 -12.256,1.999 l -0.642,0.225 0.019,-17.629 c 0,-1.54 3.113,-1.442 3.113,0.229 l 0,13.832 c 6.325,1.835 9.569,-0.983 9.635,-7.998 0.065,-6.031 -3.965,-9.472 -10.552,-11.242 l -10.29,-2.721 0,20.977 -3.179,1.081 3.179,0.983 0,5.244 -7.504,2.524 C 8.922,37.666 6.824,35.667 9.086,34.847 l 1.835,-0.655 -6.915,-2.196 c -2.131,0.721 -4.129,2.262 -3.998,4.425 0.131,2.196 5.145,2.721 9.012,3.344 3.604,0.59 6.882,0.262 9.865,-0.787 l 0,-2.262 0,4.655 8.062,2.622 0,-0.164 0.065,0.164 7.046,-2.458 11.7,-4.129 -7.603,-2.36 -11.202,3.833 0.003,-2.656 7.169,-2.456 4.194,-1.41 c 4.392,-0.819 6.162,0.623 1.933,1.967 l -2.098,0.721 7.603,2.36 0.131,-0.033 c 3.081,-1.082 4.392,-2.59 4.065,-3.999 z"/><path style="fill:#000" id="path4224" d="m 4.004,31.998 6.915,2.196 7.964,-2.852 0,-2.294 -3.179,-0.983 -11.537,3.9 c -0.033,0 -0.098,0.033 -0.163,0.033 z"/></g></g><style id="style3999" type="text/css"/><style id="style4048" type="text/css"/></svg>