<svg xmlns="http://www.w3.org/2000/svg" xmlns:svg="http://www.w3.org/2000/svg" id="svg3390" width="480" height="480" version="1.1" viewBox="0 0 480 480" xml:space="preserve"><metadata id="metadata3396"/><defs id="defs3394"><clipPath id="clipPath3404" clipPathUnits="userSpaceOnUse"><path id="path3406" d="M 0,48 48,48 48,0 0,0 0,48 Z"/></clipPath><clipPath id="clipPath3416" clipPathUnits="userSpaceOnUse"><path id="path3418" d="M 0,48 48,48 48,0 0,0 0,48 Z"/></clipPath><clipPath id="clipPath3426" clipPathUnits="userSpaceOnUse"><path id="path3428" d="M 0,48 48,48 48,0 0,0 0,48 Z"/></clipPath><clipPath id="clipPath3434" clipPathUnits="userSpaceOnUse"><path id="path3436" d="M 0,48 48,48 48,0 0,0 0,48 Z"/></clipPath><clipPath id="clipPath3442" clipPathUnits="userSpaceOnUse"><path id="path3444" d="m -2.13623e-4,48.0002 48.000013623,0 0,-48.000047412 -48.000013623,0 0,48.000047412 z"/></clipPath><clipPath id="clipPath3446" clipPathUnits="userSpaceOnUse"><path id="path3448" d="m -2.13623e-4,47.9998 48.000013623,0 0,-47.999952588 -48.000013623,0 0,47.999952588 z"/></clipPath><clipPath id="clipPath3450" clipPathUnits="userSpaceOnUse"><path id="path3452" d="M 48,48 0,48 0,0 48,0 48,48 Z"/></clipPath><clipPath id="clipPath3658" clipPathUnits="userSpaceOnUse"><path id="path3660" d="M 0,48 48,48 48,0 0,0 0,48 Z"/></clipPath><clipPath id="clipPath3668" clipPathUnits="userSpaceOnUse"><path id="path3670" d="m -2.28882e-4,48.0001 48.000028882,0 0,-47.99997793 -48.000028882,0 0,47.99997793 z"/></clipPath><clipPath id="clipPath3676" clipPathUnits="userSpaceOnUse"><path id="path3678" d="m -2.28882e-4,48.0001 48.000028882,0 0,-47.99997793 -48.000028882,0 0,47.99997793 z"/></clipPath><clipPath id="clipPath3680" clipPathUnits="userSpaceOnUse"><path id="path3682" d="M 0,0 48,0 48,48 0,48 0,0 Z"/></clipPath></defs><g id="g3398" transform="matrix(1.25,0,0,-1.25,0,480)"><path style="fill:#000" id="path3762"/><path style="fill:#000" id="path3760"/><path style="fill:#000" id="path3758"/><g id="g4351" transform="matrix(6.4288994,0,0,-6.400256,31.277515,352.0128)"><path id="path4331" d="M 34,46 9.052,46 9.184,29.215 5.422,29.16 5.401,50 l 32.598,0 0,-21 -4,0 z" style="fill:#000"/><path id="path4333" d="m 11.5,39 19.5,0 0,4 -19.5,0 0,-4 z" style="fill:#000"/><path id="path4335" d="M 12.016,31.539 31.641,33.434 31.23,37.69 11.605,35.795 12.016,31.539 Z" style="fill:#000"/><path id="path4337" d="M 13.813,23.045 32.788,28.4 31.627,32.516 12.652,27.161 13.813,23.045 Z" style="fill:#000"/><path id="path4339" d="M 18.412,13.447 35.288,23.64 33.077,27.302 16.201,17.109 18.412,13.447 Z" style="fill:#000"/><path id="path4341" d="M 36.017,22.874 24.533,6.847 28.01,4.356 39.494,20.383 36.017,22.874 Z" style="fill:#000"/><path id="path4343" d="M 37.131,0.707 41.35,0.002 44.599,19.447 40.38,20.152 37.131,0.707 Z" style="fill:#000"/></g></g><style id="style3999" type="text/css"/><style id="style4048" type="text/css"/></svg>