<svg xmlns="http://www.w3.org/2000/svg" xmlns:svg="http://www.w3.org/2000/svg" id="svg3390" width="480" height="480" version="1.1" viewBox="0 0 480 480" xml:space="preserve"><metadata id="metadata3396"/><defs id="defs3394"><clipPath id="clipPath3404" clipPathUnits="userSpaceOnUse"><path id="path3406" d="M 0,48 48,48 48,0 0,0 0,48 Z"/></clipPath><clipPath id="clipPath3416" clipPathUnits="userSpaceOnUse"><path id="path3418" d="M 0,48 48,48 48,0 0,0 0,48 Z"/></clipPath><clipPath id="clipPath3426" clipPathUnits="userSpaceOnUse"><path id="path3428" d="M 0,48 48,48 48,0 0,0 0,48 Z"/></clipPath><clipPath id="clipPath3434" clipPathUnits="userSpaceOnUse"><path id="path3436" d="M 0,48 48,48 48,0 0,0 0,48 Z"/></clipPath><clipPath id="clipPath3442" clipPathUnits="userSpaceOnUse"><path id="path3444" d="m -2.13623e-4,48.0002 48.000013623,0 0,-48.000047412 -48.000013623,0 0,48.000047412 z"/></clipPath><clipPath id="clipPath3446" clipPathUnits="userSpaceOnUse"><path id="path3448" d="m -2.13623e-4,47.9998 48.000013623,0 0,-47.999952588 -48.000013623,0 0,47.999952588 z"/></clipPath><clipPath id="clipPath3450" clipPathUnits="userSpaceOnUse"><path id="path3452" d="M 48,48 0,48 0,0 48,0 48,48 Z"/></clipPath><clipPath id="clipPath3658" clipPathUnits="userSpaceOnUse"><path id="path3660" d="M 0,48 48,48 48,0 0,0 0,48 Z"/></clipPath><clipPath id="clipPath3668" clipPathUnits="userSpaceOnUse"><path id="path3670" d="m -2.28882e-4,48.0001 48.000028882,0 0,-47.99997793 -48.000028882,0 0,47.99997793 z"/></clipPath><clipPath id="clipPath3676" clipPathUnits="userSpaceOnUse"><path id="path3678" d="m -2.28882e-4,48.0001 48.000028882,0 0,-47.99997793 -48.000028882,0 0,47.99997793 z"/></clipPath><clipPath id="clipPath3680" clipPathUnits="userSpaceOnUse"><path id="path3682" d="M 0,0 48,0 48,48 0,48 0,0 Z"/></clipPath></defs><g id="g3398" transform="matrix(1.25,0,0,-1.25,0,480)"><path style="fill:#000" id="path3762"/><path style="fill:#000" id="path3760"/><path style="fill:#000" id="path3758"/><path id="path4373" d="m 92.806443,220.89107 0,45.28368 c 12.649987,4.08295 23.496517,9.9322 32.500937,17.56695 9.03018,7.62194 16.26335,16.77979 21.71882,27.46715 5.45547,10.68736 9.21697,24.29294 11.27163,40.79115 l 45.80146,0 0,-80.87835 76.42164,0 0,-50.23698 -76.42164,0 0,-82.05588 c 0,-18.54609 0.9919,-30.44937 2.96927,-35.72906 1.97092,-5.26048 5.66157,-9.46503 11.02687,-12.61364 7.13655,-4.24294 15.27789,-6.37402 24.45622,-6.37402 16.29555,0 32.51382,5.27329 48.64835,15.80066 l 0,-50.46098 C 277.43573,43.01374 264.96609,38.47641 253.82971,35.89097 242.66114,33.29272 230.59084,32 217.62524,32 c -14.71752,0 -27.72176,1.84949 -39.04492,5.54207 -11.31028,3.69898 -20.95235,8.96586 -28.95199,15.80065 -7.98675,6.84119 -13.52595,14.11115 -16.61116,21.81629 -3.0852,7.69234 -4.62458,18.86607 -4.62458,33.48279 l 0,112.23007 -35.592589,0 z" style="fill:#000"/></g><style id="style3999" type="text/css"/><style id="style4048" type="text/css"/></svg>