<svg xmlns="http://www.w3.org/2000/svg" xmlns:svg="http://www.w3.org/2000/svg" id="svg3390" width="480" height="480" version="1.1" viewBox="0 0 480 480" xml:space="preserve"><metadata id="metadata3396"/><defs id="defs3394"><clipPath id="clipPath3404" clipPathUnits="userSpaceOnUse"><path id="path3406" d="M 0,48 48,48 48,0 0,0 0,48 Z"/></clipPath><clipPath id="clipPath3416" clipPathUnits="userSpaceOnUse"><path id="path3418" d="M 0,48 48,48 48,0 0,0 0,48 Z"/></clipPath><clipPath id="clipPath3426" clipPathUnits="userSpaceOnUse"><path id="path3428" d="M 0,48 48,48 48,0 0,0 0,48 Z"/></clipPath><clipPath id="clipPath3434" clipPathUnits="userSpaceOnUse"><path id="path3436" d="M 0,48 48,48 48,0 0,0 0,48 Z"/></clipPath><clipPath id="clipPath3442" clipPathUnits="userSpaceOnUse"><path id="path3444" d="m -2.13623e-4,48.0002 48.000013623,0 0,-48.000047412 -48.000013623,0 0,48.000047412 z"/></clipPath><clipPath id="clipPath3446" clipPathUnits="userSpaceOnUse"><path id="path3448" d="m -2.13623e-4,47.9998 48.000013623,0 0,-47.999952588 -48.000013623,0 0,47.999952588 z"/></clipPath><clipPath id="clipPath3450" clipPathUnits="userSpaceOnUse"><path id="path3452" d="M 48,48 0,48 0,0 48,0 48,48 Z"/></clipPath><clipPath id="clipPath3658" clipPathUnits="userSpaceOnUse"><path id="path3660" d="M 0,48 48,48 48,0 0,0 0,48 Z"/></clipPath><clipPath id="clipPath3668" clipPathUnits="userSpaceOnUse"><path id="path3670" d="m -2.28882e-4,48.0001 48.000028882,0 0,-47.99997793 -48.000028882,0 0,47.99997793 z"/></clipPath><clipPath id="clipPath3676" clipPathUnits="userSpaceOnUse"><path id="path3678" d="m -2.28882e-4,48.0001 48.000028882,0 0,-47.99997793 -48.000028882,0 0,47.99997793 z"/></clipPath><clipPath id="clipPath3680" clipPathUnits="userSpaceOnUse"><path id="path3682" d="M 0,0 48,0 48,48 0,48 0,0 Z"/></clipPath></defs><g id="g3398" transform="matrix(1.25,0,0,-1.25,0,480)"><path style="fill:#000" id="path3762"/><path style="fill:#000" id="path3760"/><path style="fill:#000" id="path3758"/><path id="path4444" d="M 61.958398,258.18765 C 54.783998,270.24328 42.387199,282.15181 33.44,285.58623 l -1.44,0.5628 0,11.60154 0.9216,0.12152 L 114.18882,298 c 0.0512,-2.21286 0.096,-6.81127 0.032,-11.13467 -10.7456,-1.33027 -23.6992,-6.58102 -20.108801,-18.62386 20.492801,-45.2358 39.136001,-91.29022 59.359991,-136.64113 l 34.72,64.87655 c -13.44,27.50091 -23.2256,55.3216 -37.9328,82.29167 -4.79359,7.7706 -17.75999,7.98165 -26.94399,8.28864 l 0.032,10.73814 76.81279,-0.26861 0.224,-10.3672 c -6.9248,-0.95934 -15.0912,-2.59659 -14.1632,-10.99396 l 21.7984,-48.17775 c 7.1744,15.29178 15.1488,30.27018 21.4784,45.9393 2.8672,12.40738 -11.104,13.02775 -20.0128,13.3795 l -0.16,10.22011 68.64,0.26222 0,-10.45674 c -10.0288,-0.70991 -19.52,-3.60069 -25.056,-11.01315 -13.4528,-20.78557 -23.424,-44.3596 -33.9072,-66.92953 10.3488,-24.46302 21.1392,-48.89406 31.7184,-71.32328 l 58.50879,134.85037 c -3.9488,8.88983 -12.8832,12.03005 -21.664,14.06383 l -0.448,10.87245 64.8832,-0.51804 0,-10.57825 c -2.8928,-0.45409 -5.664,-1.34306 -8.3328,-2.50705 -5.0688,-2.34717 -9.8624,-7.02233 -13.0816,-12.73996 L 249.94561,86.10233 236.42881,86 198.06721,176.28611 151.50721,86 137.52322,86 c -27.2064,56.63908 -46.8928,116.2329 -75.558422,172.18125 z" style="fill:#000"/></g><style id="style3999" type="text/css"/><style id="style4048" type="text/css"/></svg>